<mxfile host="app.diagrams.net" agent="Mozilla/5.0 (Macintosh; Intel Mac OS X 10_15_7) AppleWebKit/537.36 (KHTML, like Gecko) Chrome/134.0.0.0 YaBrowser/25.4.0.0 Safari/537.36" version="27.1.5">
  <diagram name="Страница — 1" id="r3x8Q5eOp7jP67QgiU96">
    <mxGraphModel dx="4536" dy="3672" grid="1" gridSize="10" guides="1" tooltips="1" connect="1" arrows="1" fold="1" page="1" pageScale="1" pageWidth="827" pageHeight="1169" math="0" shadow="0">
      <root>
        <mxCell id="0" />
        <mxCell id="1" parent="0" />
        <mxCell id="grHMZDMgPBOYTe_dRCuI-3" value="" style="edgeStyle=orthogonalEdgeStyle;rounded=0;orthogonalLoop=1;jettySize=auto;html=1;" edge="1" parent="1" source="grHMZDMgPBOYTe_dRCuI-1" target="grHMZDMgPBOYTe_dRCuI-2">
          <mxGeometry relative="1" as="geometry" />
        </mxCell>
        <mxCell id="grHMZDMgPBOYTe_dRCuI-5" value="" style="edgeStyle=orthogonalEdgeStyle;rounded=0;orthogonalLoop=1;jettySize=auto;html=1;" edge="1" parent="1" source="grHMZDMgPBOYTe_dRCuI-1" target="grHMZDMgPBOYTe_dRCuI-4">
          <mxGeometry relative="1" as="geometry" />
        </mxCell>
        <mxCell id="grHMZDMgPBOYTe_dRCuI-7" value="" style="edgeStyle=orthogonalEdgeStyle;rounded=0;orthogonalLoop=1;jettySize=auto;html=1;" edge="1" parent="1" source="grHMZDMgPBOYTe_dRCuI-1" target="grHMZDMgPBOYTe_dRCuI-6">
          <mxGeometry relative="1" as="geometry" />
        </mxCell>
        <mxCell id="grHMZDMgPBOYTe_dRCuI-9" value="" style="edgeStyle=orthogonalEdgeStyle;rounded=0;orthogonalLoop=1;jettySize=auto;html=1;" edge="1" parent="1" source="grHMZDMgPBOYTe_dRCuI-1" target="grHMZDMgPBOYTe_dRCuI-8">
          <mxGeometry relative="1" as="geometry" />
        </mxCell>
        <mxCell id="grHMZDMgPBOYTe_dRCuI-1" value="&lt;span style=&quot;caret-color: rgba(0, 0, 0, 0.85); color: rgba(0, 0, 0, 0.85); font-family: &amp;quot;YS Text&amp;quot;, sans-serif; text-align: start; white-space-collapse: preserve; background-color: rgb(255, 255, 255);&quot;&gt;&lt;font style=&quot;font-size: 16px;&quot;&gt;Безопасность данных&lt;/font&gt;&lt;/span&gt;" style="rounded=0;whiteSpace=wrap;html=1;" vertex="1" parent="1">
          <mxGeometry x="350" y="420" width="120" height="60" as="geometry" />
        </mxCell>
        <mxCell id="grHMZDMgPBOYTe_dRCuI-22" value="" style="edgeStyle=orthogonalEdgeStyle;rounded=0;orthogonalLoop=1;jettySize=auto;html=1;" edge="1" parent="1" source="grHMZDMgPBOYTe_dRCuI-2" target="grHMZDMgPBOYTe_dRCuI-21">
          <mxGeometry relative="1" as="geometry" />
        </mxCell>
        <mxCell id="grHMZDMgPBOYTe_dRCuI-2" value="&lt;span style=&quot;caret-color: rgba(0, 0, 0, 0.85); color: rgba(0, 0, 0, 0.85); font-family: &amp;quot;YS Text&amp;quot;, sans-serif; white-space-collapse: preserve-breaks; background-color: rgb(255, 255, 255);&quot;&gt;&lt;font style=&quot;font-size: 16px;&quot;&gt;конфиденциальные&lt;/font&gt;&lt;/span&gt;&lt;span style=&quot;caret-color: rgba(0, 0, 0, 0.85); color: rgba(0, 0, 0, 0.85); font-family: &amp;quot;YS Text&amp;quot;, sans-serif; font-size: 18px; white-space-collapse: preserve-breaks; background-color: rgb(255, 255, 255);&quot;&gt; &lt;/span&gt;&lt;span style=&quot;caret-color: rgba(0, 0, 0, 0.85); color: rgba(0, 0, 0, 0.85); font-family: &amp;quot;YS Text&amp;quot;, sans-serif; white-space-collapse: preserve-breaks; background-color: rgb(255, 255, 255);&quot;&gt;&lt;font style=&quot;font-size: 16px;&quot;&gt;данные&lt;/font&gt;&lt;/span&gt;" style="whiteSpace=wrap;html=1;rounded=0;align=center;" vertex="1" parent="1">
          <mxGeometry x="335" y="280" width="150" height="60" as="geometry" />
        </mxCell>
        <mxCell id="grHMZDMgPBOYTe_dRCuI-26" value="" style="edgeStyle=orthogonalEdgeStyle;rounded=0;orthogonalLoop=1;jettySize=auto;html=1;" edge="1" parent="1" source="grHMZDMgPBOYTe_dRCuI-4" target="grHMZDMgPBOYTe_dRCuI-25">
          <mxGeometry relative="1" as="geometry" />
        </mxCell>
        <mxCell id="grHMZDMgPBOYTe_dRCuI-4" value="&lt;span style=&quot;caret-color: rgba(0, 0, 0, 0.85); color: rgba(0, 0, 0, 0.85); font-family: &amp;quot;YS Text&amp;quot;, sans-serif; text-align: left; white-space-collapse: preserve-breaks; background-color: rgb(255, 255, 255);&quot;&gt;&lt;font style=&quot;font-size: 16px;&quot;&gt;секретные данные&lt;/font&gt;&lt;/span&gt;" style="whiteSpace=wrap;html=1;rounded=0;" vertex="1" parent="1">
          <mxGeometry x="550" y="420" width="120" height="60" as="geometry" />
        </mxCell>
        <mxCell id="grHMZDMgPBOYTe_dRCuI-11" value="" style="edgeStyle=orthogonalEdgeStyle;rounded=0;orthogonalLoop=1;jettySize=auto;html=1;" edge="1" parent="1" source="grHMZDMgPBOYTe_dRCuI-6" target="grHMZDMgPBOYTe_dRCuI-10">
          <mxGeometry relative="1" as="geometry" />
        </mxCell>
        <mxCell id="grHMZDMgPBOYTe_dRCuI-12" value="" style="edgeStyle=orthogonalEdgeStyle;rounded=0;orthogonalLoop=1;jettySize=auto;html=1;" edge="1" parent="1" source="grHMZDMgPBOYTe_dRCuI-6" target="grHMZDMgPBOYTe_dRCuI-10">
          <mxGeometry relative="1" as="geometry" />
        </mxCell>
        <mxCell id="grHMZDMgPBOYTe_dRCuI-16" style="edgeStyle=orthogonalEdgeStyle;rounded=0;orthogonalLoop=1;jettySize=auto;html=1;entryX=0.5;entryY=0;entryDx=0;entryDy=0;" edge="1" parent="1" source="grHMZDMgPBOYTe_dRCuI-6" target="grHMZDMgPBOYTe_dRCuI-15">
          <mxGeometry relative="1" as="geometry" />
        </mxCell>
        <mxCell id="grHMZDMgPBOYTe_dRCuI-6" value="&lt;span style=&quot;caret-color: rgba(0, 0, 0, 0.85); color: rgba(0, 0, 0, 0.85); font-family: &amp;quot;YS Text&amp;quot;, sans-serif; text-align: left; white-space-collapse: preserve-breaks; background-color: rgb(255, 255, 255);&quot;&gt;&lt;font style=&quot;font-size: 16px;&quot;&gt;публичные данные&lt;/font&gt;&lt;/span&gt;" style="whiteSpace=wrap;html=1;rounded=0;" vertex="1" parent="1">
          <mxGeometry x="350" y="560" width="120" height="60" as="geometry" />
        </mxCell>
        <mxCell id="grHMZDMgPBOYTe_dRCuI-18" value="" style="edgeStyle=orthogonalEdgeStyle;rounded=0;orthogonalLoop=1;jettySize=auto;html=1;" edge="1" parent="1" source="grHMZDMgPBOYTe_dRCuI-8" target="grHMZDMgPBOYTe_dRCuI-17">
          <mxGeometry relative="1" as="geometry" />
        </mxCell>
        <mxCell id="grHMZDMgPBOYTe_dRCuI-8" value="&lt;span style=&quot;caret-color: rgba(0, 0, 0, 0.85); color: rgba(0, 0, 0, 0.85); font-family: &amp;quot;YS Text&amp;quot;, sans-serif; text-align: left; white-space-collapse: preserve-breaks; background-color: rgb(255, 255, 255);&quot;&gt;&lt;font style=&quot;font-size: 16px;&quot;&gt;внутренние данные&lt;/font&gt;&lt;/span&gt;" style="whiteSpace=wrap;html=1;rounded=0;" vertex="1" parent="1">
          <mxGeometry x="150" y="420" width="120" height="60" as="geometry" />
        </mxCell>
        <mxCell id="grHMZDMgPBOYTe_dRCuI-31" style="edgeStyle=orthogonalEdgeStyle;rounded=0;orthogonalLoop=1;jettySize=auto;html=1;" edge="1" parent="1" source="grHMZDMgPBOYTe_dRCuI-10" target="grHMZDMgPBOYTe_dRCuI-29">
          <mxGeometry relative="1" as="geometry" />
        </mxCell>
        <mxCell id="grHMZDMgPBOYTe_dRCuI-10" value="&lt;span style=&quot;color: rgba(0, 0, 0, 0.85); font-family: &amp;quot;YS Text&amp;quot;, sans-serif; font-size: 16px; text-align: left; caret-color: rgba(0, 0, 0, 0.85); white-space-collapse: preserve-breaks; background-color: rgb(255, 255, 255);&quot;&gt;объекты недвижимости&lt;/span&gt;" style="whiteSpace=wrap;html=1;rounded=0;" vertex="1" parent="1">
          <mxGeometry x="260" y="700" width="120" height="60" as="geometry" />
        </mxCell>
        <mxCell id="grHMZDMgPBOYTe_dRCuI-30" value="" style="edgeStyle=orthogonalEdgeStyle;rounded=0;orthogonalLoop=1;jettySize=auto;html=1;" edge="1" parent="1" source="grHMZDMgPBOYTe_dRCuI-15" target="grHMZDMgPBOYTe_dRCuI-29">
          <mxGeometry relative="1" as="geometry" />
        </mxCell>
        <mxCell id="grHMZDMgPBOYTe_dRCuI-15" value="&lt;div style=&quot;&quot;&gt;&lt;font face=&quot;YS Text, sans-serif&quot; color=&quot;rgba(0, 0, 0, 0.85)&quot;&gt;&lt;span style=&quot;font-size: 16px; caret-color: rgba(0, 0, 0, 0.85); white-space-collapse: preserve-breaks; background-color: rgb(255, 255, 255);&quot;&gt;перечень партнеров жку/предоставляемых жку услуг&lt;/span&gt;&lt;/font&gt;&lt;/div&gt;" style="rounded=0;whiteSpace=wrap;html=1;align=center;" vertex="1" parent="1">
          <mxGeometry x="440" y="700" width="140" height="100" as="geometry" />
        </mxCell>
        <mxCell id="grHMZDMgPBOYTe_dRCuI-28" value="" style="edgeStyle=orthogonalEdgeStyle;rounded=0;orthogonalLoop=1;jettySize=auto;html=1;" edge="1" parent="1" source="grHMZDMgPBOYTe_dRCuI-17" target="grHMZDMgPBOYTe_dRCuI-27">
          <mxGeometry relative="1" as="geometry" />
        </mxCell>
        <mxCell id="grHMZDMgPBOYTe_dRCuI-17" value="&lt;span style=&quot;color: rgba(0, 0, 0, 0.85); font-family: &amp;quot;YS Text&amp;quot;, sans-serif; font-size: 16px; text-align: left; caret-color: rgba(0, 0, 0, 0.85); white-space-collapse: preserve-breaks; background-color: rgb(255, 255, 255);&quot;&gt;обезличенная аналитика данных о сделках/жку услугах&lt;/span&gt;" style="whiteSpace=wrap;html=1;rounded=0;" vertex="1" parent="1">
          <mxGeometry x="-70" y="395" width="120" height="110" as="geometry" />
        </mxCell>
        <mxCell id="grHMZDMgPBOYTe_dRCuI-33" value="" style="edgeStyle=orthogonalEdgeStyle;rounded=0;orthogonalLoop=1;jettySize=auto;html=1;" edge="1" parent="1" source="grHMZDMgPBOYTe_dRCuI-21" target="grHMZDMgPBOYTe_dRCuI-32">
          <mxGeometry relative="1" as="geometry" />
        </mxCell>
        <mxCell id="grHMZDMgPBOYTe_dRCuI-21" value="&lt;div style=&quot;&quot;&gt;&lt;font face=&quot;YS Text, sans-serif&quot; color=&quot;rgba(0, 0, 0, 0.85)&quot;&gt;&lt;span style=&quot;font-size: 16px; caret-color: rgba(0, 0, 0, 0.85); white-space-collapse: preserve-breaks; background-color: rgb(255, 255, 255);&quot;&gt;пользовательская/клиентская информация(имя/контактные данные итд)&lt;/span&gt;&lt;/font&gt;&lt;/div&gt;" style="whiteSpace=wrap;html=1;rounded=0;align=center;" vertex="1" parent="1">
          <mxGeometry x="325" y="80" width="170" height="140" as="geometry" />
        </mxCell>
        <mxCell id="grHMZDMgPBOYTe_dRCuI-35" value="" style="edgeStyle=orthogonalEdgeStyle;rounded=0;orthogonalLoop=1;jettySize=auto;html=1;" edge="1" parent="1" source="grHMZDMgPBOYTe_dRCuI-25" target="grHMZDMgPBOYTe_dRCuI-34">
          <mxGeometry relative="1" as="geometry" />
        </mxCell>
        <mxCell id="grHMZDMgPBOYTe_dRCuI-25" value="&lt;span style=&quot;color: rgba(0, 0, 0, 0.85); font-family: &amp;quot;YS Text&amp;quot;, sans-serif; font-size: 16px; text-align: left; caret-color: rgba(0, 0, 0, 0.85); white-space-collapse: preserve-breaks; background-color: rgb(255, 255, 255);&quot;&gt;платежная информация пользователей&lt;/span&gt;" style="whiteSpace=wrap;html=1;rounded=0;" vertex="1" parent="1">
          <mxGeometry x="750" y="410" width="120" height="80" as="geometry" />
        </mxCell>
        <mxCell id="grHMZDMgPBOYTe_dRCuI-27" value="&lt;div style=&quot;&quot;&gt;&lt;font style=&quot;font-size: 14px;&quot; face=&quot;YS Text, sans-serif&quot; color=&quot;rgba(0, 0, 0, 0.85)&quot;&gt;&lt;span style=&quot;caret-color: rgba(0, 0, 0, 0.85); white-space-collapse: preserve-breaks; background-color: rgb(255, 255, 255);&quot;&gt;нет системного контроля потока данных между it&lt;/span&gt;&lt;/font&gt;&lt;/div&gt;&lt;div style=&quot;&quot;&gt;&lt;font style=&quot;font-size: 14px;&quot; face=&quot;YS Text, sans-serif&quot; color=&quot;rgba(0, 0, 0, 0.85)&quot;&gt;&lt;span style=&quot;caret-color: rgba(0, 0, 0, 0.85); white-space-collapse: preserve-breaks; background-color: rgb(255, 255, 255);&quot;&gt;&amp;nbsp;сервисами внутри компании,&amp;nbsp;&lt;/span&gt;&lt;/font&gt;&lt;/div&gt;&lt;div style=&quot;&quot;&gt;&lt;font style=&quot;font-size: 14px;&quot; face=&quot;YS Text, sans-serif&quot; color=&quot;rgba(0, 0, 0, 0.85)&quot;&gt;&lt;span style=&quot;caret-color: rgba(0, 0, 0, 0.85); white-space-collapse: preserve-breaks; background-color: rgb(255, 255, 255);&quot;&gt;как результат в какой-то момент может быть допущенна ошибка приводящая к &lt;b&gt;утечке данных&lt;/b&gt;&lt;/span&gt;&lt;/font&gt;&lt;/div&gt;&lt;div style=&quot;&quot;&gt;&lt;font style=&quot;font-size: 14px;&quot; face=&quot;YS Text, sans-serif&quot; color=&quot;rgba(0, 0, 0, 0.85)&quot;&gt;&lt;span style=&quot;caret-color: rgba(0, 0, 0, 0.85); white-space-collapse: preserve-breaks; background-color: rgb(255, 255, 255);&quot;&gt;&amp;nbsp;из одного блока внутренний системы в остальные.&lt;/span&gt;&lt;/font&gt;&lt;/div&gt;&lt;div style=&quot;&quot;&gt;&lt;font style=&quot;font-size: 14px;&quot; face=&quot;YS Text, sans-serif&quot; color=&quot;rgba(0, 0, 0, 0.85)&quot;&gt;&lt;span style=&quot;caret-color: rgba(0, 0, 0, 0.85); white-space-collapse: preserve-breaks; background-color: rgb(255, 255, 255);&quot;&gt;&amp;nbsp;Отловленно это ничем не будет, также может привести&lt;/span&gt;&lt;/font&gt;&lt;/div&gt;&lt;div style=&quot;&quot;&gt;&lt;font style=&quot;font-size: 14px;&quot; face=&quot;YS Text, sans-serif&quot; color=&quot;rgba(0, 0, 0, 0.85)&quot;&gt;&lt;span style=&quot;caret-color: rgba(0, 0, 0, 0.85); white-space-collapse: preserve-breaks; background-color: rgb(255, 255, 255);&quot;&gt;&amp;nbsp;к ошибкам сервисов, если в них нет качественной обработки входящих данных.&amp;nbsp;&lt;/span&gt;&lt;/font&gt;&lt;/div&gt;&lt;div style=&quot;&quot;&gt;&lt;font style=&quot;font-size: 14px;&quot; face=&quot;YS Text, sans-serif&quot; color=&quot;rgba(0, 0, 0, 0.85)&quot;&gt;&lt;span style=&quot;caret-color: rgba(0, 0, 0, 0.85); white-space-collapse: preserve-breaks; background-color: rgb(255, 255, 255);&quot;&gt;&lt;b&gt;Уровень риска: критический&lt;/b&gt;&lt;/span&gt;&lt;/font&gt;&lt;/div&gt;" style="ellipse;shape=cloud;whiteSpace=wrap;html=1;rounded=0;align=center;" vertex="1" parent="1">
          <mxGeometry x="-630" y="295" width="480" height="310" as="geometry" />
        </mxCell>
        <mxCell id="grHMZDMgPBOYTe_dRCuI-29" value="&lt;span style=&quot;color: rgba(0, 0, 0, 0.85); font-family: &amp;quot;YS Text&amp;quot;, sans-serif; font-size: 16px; caret-color: rgba(0, 0, 0, 0.85); white-space-collapse: preserve-breaks; background-color: rgb(255, 255, 255);&quot;&gt;основная проблема:&amp;nbsp;&lt;/span&gt;&lt;div&gt;&lt;span style=&quot;color: rgba(0, 0, 0, 0.85); font-family: &amp;quot;YS Text&amp;quot;, sans-serif; font-size: 16px; caret-color: rgba(0, 0, 0, 0.85); white-space-collapse: preserve-breaks; background-color: rgb(255, 255, 255);&quot;&gt;некачественно введенные данные о новых объектах недвижимости, приводящие к искаженным данным,&lt;/span&gt;&lt;/div&gt;&lt;div&gt;&lt;span style=&quot;color: rgba(0, 0, 0, 0.85); font-family: &amp;quot;YS Text&amp;quot;, sans-serif; font-size: 16px; caret-color: rgba(0, 0, 0, 0.85); white-space-collapse: preserve-breaks; background-color: rgb(255, 255, 255);&quot;&gt;&amp;nbsp;а также обесценивание данных.&amp;nbsp;&lt;/span&gt;&lt;/div&gt;&lt;div&gt;&lt;span style=&quot;color: rgba(0, 0, 0, 0.85); font-family: &amp;quot;YS Text&amp;quot;, sans-serif; font-size: 16px; caret-color: rgba(0, 0, 0, 0.85); white-space-collapse: preserve-breaks; background-color: rgb(255, 255, 255);&quot;&gt;Так как база данных реляционная,&amp;nbsp;&lt;/span&gt;&lt;/div&gt;&lt;div&gt;&lt;span style=&quot;color: rgba(0, 0, 0, 0.85); font-family: &amp;quot;YS Text&amp;quot;, sans-serif; font-size: 16px; caret-color: rgba(0, 0, 0, 0.85); white-space-collapse: preserve-breaks; background-color: rgb(255, 255, 255);&quot;&gt;строгая схематизация делает риск данной проблемы низким&lt;/span&gt;&lt;/div&gt;" style="ellipse;shape=cloud;whiteSpace=wrap;html=1;rounded=0;align=center;" vertex="1" parent="1">
          <mxGeometry x="120" y="890" width="450" height="260" as="geometry" />
        </mxCell>
        <mxCell id="grHMZDMgPBOYTe_dRCuI-32" value="&lt;div style=&quot;&quot;&gt;&lt;font face=&quot;YS Text, sans-serif&quot; color=&quot;rgba(0, 0, 0, 0.85)&quot;&gt;&lt;span style=&quot;font-size: 16px; caret-color: rgba(0, 0, 0, 0.85); white-space-collapse: preserve-breaks; background-color: rgb(255, 255, 255);&quot;&gt;В сервисе нет единой точки&amp;nbsp;&lt;/span&gt;&lt;/font&gt;&lt;/div&gt;&lt;div style=&quot;&quot;&gt;&lt;font face=&quot;YS Text, sans-serif&quot; color=&quot;rgba(0, 0, 0, 0.85)&quot;&gt;&lt;span style=&quot;font-size: 16px; caret-color: rgba(0, 0, 0, 0.85); white-space-collapse: preserve-breaks; background-color: rgb(255, 255, 255);&quot;&gt;для регистрации пользователя -&amp;gt; нет единой точки, которая фиксирует и обрабатывает&amp;nbsp; пользовательские данные,&amp;nbsp;&lt;/span&gt;&lt;/font&gt;&lt;/div&gt;&lt;div style=&quot;&quot;&gt;&lt;font face=&quot;YS Text, sans-serif&quot; color=&quot;rgba(0, 0, 0, 0.85)&quot;&gt;&lt;span style=&quot;font-size: 16px; caret-color: rgba(0, 0, 0, 0.85); white-space-collapse: preserve-breaks; background-color: rgb(255, 255, 255);&quot;&gt;контроль между потоками данных не системный&lt;/span&gt;&lt;/font&gt;&lt;/div&gt;&lt;div style=&quot;&quot;&gt;&lt;font face=&quot;YS Text, sans-serif&quot; color=&quot;rgba(0, 0, 0, 0.85)&quot;&gt;&lt;span style=&quot;font-size: 16px; caret-color: rgba(0, 0, 0, 0.85); white-space-collapse: preserve-breaks; background-color: rgb(255, 255, 255);&quot;&gt;&amp;nbsp;+ нет системы контроля передаваемых данных партнерам жку.&amp;nbsp;&lt;/span&gt;&lt;/font&gt;&lt;/div&gt;&lt;div style=&quot;&quot;&gt;&lt;font face=&quot;YS Text, sans-serif&quot; color=&quot;rgba(0, 0, 0, 0.85)&quot;&gt;&lt;span style=&quot;font-size: 16px; caret-color: rgba(0, 0, 0, 0.85); white-space-collapse: preserve-breaks; background-color: rgb(255, 255, 255);&quot;&gt;Это ведет к &lt;b&gt;критическому риску утечки/искажению данных(в случае изменения данных партнерами)&lt;/b&gt;&lt;/span&gt;&lt;/font&gt;&lt;/div&gt;" style="ellipse;shape=cloud;whiteSpace=wrap;html=1;rounded=0;align=center;" vertex="1" parent="1">
          <mxGeometry x="190" y="-350" width="440" height="350" as="geometry" />
        </mxCell>
        <mxCell id="grHMZDMgPBOYTe_dRCuI-34" value="&lt;div style=&quot;&quot;&gt;&lt;font face=&quot;YS Text, sans-serif&quot; color=&quot;rgba(0, 0, 0, 0.85)&quot;&gt;&lt;span style=&quot;font-size: 16px; caret-color: rgba(0, 0, 0, 0.85); white-space-collapse: preserve-breaks; background-color: rgb(255, 255, 255);&quot;&gt;данные используются при взаимодействии&amp;nbsp;&lt;/span&gt;&lt;/font&gt;&lt;/div&gt;&lt;div style=&quot;&quot;&gt;&lt;font face=&quot;YS Text, sans-serif&quot; color=&quot;rgba(0, 0, 0, 0.85)&quot;&gt;&lt;span style=&quot;font-size: 16px; caret-color: rgba(0, 0, 0, 0.85); white-space-collapse: preserve-breaks; background-color: rgb(255, 255, 255);&quot;&gt;с гос регистрационными органами через апи,&amp;nbsp;&lt;/span&gt;&lt;/font&gt;&lt;/div&gt;&lt;div style=&quot;&quot;&gt;&lt;font face=&quot;YS Text, sans-serif&quot; color=&quot;rgba(0, 0, 0, 0.85)&quot;&gt;&lt;span style=&quot;font-size: 16px; caret-color: rgba(0, 0, 0, 0.85); white-space-collapse: preserve-breaks; background-color: rgb(255, 255, 255);&quot;&gt;это может приводить к утечкам данных, но предполагая,&lt;/span&gt;&lt;/font&gt;&lt;/div&gt;&lt;div style=&quot;&quot;&gt;&lt;font face=&quot;YS Text, sans-serif&quot; color=&quot;rgba(0, 0, 0, 0.85)&quot;&gt;&lt;span style=&quot;font-size: 16px; caret-color: rgba(0, 0, 0, 0.85); white-space-collapse: preserve-breaks; background-color: rgb(255, 255, 255);&quot;&gt;&amp;nbsp;что между государственными сервисами&lt;/span&gt;&lt;/font&gt;&lt;/div&gt;&lt;div style=&quot;&quot;&gt;&lt;font face=&quot;YS Text, sans-serif&quot; color=&quot;rgba(0, 0, 0, 0.85)&quot;&gt;&lt;span style=&quot;font-size: 16px; caret-color: rgba(0, 0, 0, 0.85); white-space-collapse: preserve-breaks; background-color: rgb(255, 255, 255);&quot;&gt;&amp;nbsp;устанавливаются строгие политики безопасности/шифрование итд,&lt;/span&gt;&lt;/font&gt;&lt;/div&gt;&lt;div style=&quot;&quot;&gt;&lt;font face=&quot;YS Text, sans-serif&quot; color=&quot;rgba(0, 0, 0, 0.85)&quot;&gt;&lt;span style=&quot;font-size: 16px; caret-color: rgba(0, 0, 0, 0.85); white-space-collapse: preserve-breaks; background-color: rgb(255, 255, 255);&quot;&gt;&amp;nbsp;оценю этот риск как незначительный&lt;/span&gt;&lt;/font&gt;&lt;/div&gt;" style="ellipse;shape=cloud;whiteSpace=wrap;html=1;rounded=0;align=center;" vertex="1" parent="1">
          <mxGeometry x="950" y="295" width="530" height="310" as="geometry" />
        </mxCell>
      </root>
    </mxGraphModel>
  </diagram>
</mxfile>
